<?xml version="1.0" standalone="no"?>
<!DOCTYPE svg PUBLIC "-//W3C//DTD SVG 20010904//EN"
 "http://www.w3.org/TR/2001/REC-SVG-20010904/DTD/svg10.dtd">
<svg version="1.0" xmlns="http://www.w3.org/2000/svg"
 width="274.000000pt" height="274.000000pt" viewBox="0 0 274.000000 274.000000"
 preserveAspectRatio="xMidYMid meet">
<metadata>
Created by potrace 1.14, written by Peter Selinger 2001-2017
</metadata>
<g transform="translate(0.000000,274.000000) scale(0.100000,-0.100000)"
fill="#000000" stroke="none">
<path d="M1627 2188 c-24 -13 -36 -26 -33 -34 3 -8 2 -14 -2 -14 -4 0 -8 -23
-9 -52 -2 -41 2 -57 18 -74 22 -23 23 -37 13 -118 -4 -34 -3 -47 5 -42 7 5 11
-8 11 -42 0 -59 -20 -82 -72 -82 -20 0 -55 -7 -78 -15 -44 -15 -98 -17 -106
-3 -3 4 -13 8 -24 8 -10 0 -20 7 -24 15 -4 12 -10 12 -43 -3 -21 -9 -53 -27
-70 -40 -40 -28 -88 -49 -132 -55 -19 -3 -46 -14 -60 -24 -47 -34 -89 -46
-144 -40 -28 2 -81 1 -117 -5 l-65 -9 -37 43 c-21 24 -38 48 -38 54 0 6 -11
16 -25 22 -14 6 -25 16 -25 21 0 17 74 81 94 81 10 0 16 5 13 13 -3 6 -12 29
-21 50 -18 42 -13 45 42 26 21 -7 42 -7 72 1 59 16 46 35 -26 36 -32 1 -67 2
-76 3 -21 1 -56 70 -40 80 6 3 13 19 16 34 2 14 7 31 10 35 3 5 -1 18 -9 29
-14 19 -24 21 -121 19 -125 -2 -129 -5 -129 -106 l0 -65 -65 -7 c-137 -17
-146 -30 -31 -48 l78 -12 14 -42 c17 -55 17 -98 -1 -114 -8 -8 -9 -11 -2 -7 6
3 12 1 12 -4 0 -6 -4 -11 -9 -11 -6 0 -8 -15 -7 -34 3 -26 -2 -40 -19 -56 -29
-27 -36 -67 -27 -145 4 -33 3 -85 -1 -115 -14 -85 -9 -158 15 -245 18 -63 31
-87 61 -117 65 -62 121 -62 206 1 79 59 140 143 146 201 8 72 46 73 69 1 8
-25 17 -59 21 -74 13 -60 70 -167 91 -173 11 -3 49 2 83 11 34 9 91 19 127 22
58 5 67 9 79 33 14 27 13 28 -17 41 -17 7 -42 23 -57 36 -14 14 -47 34 -73 45
-28 12 -50 29 -55 42 -10 30 -10 75 0 69 5 -3 1 9 -7 26 -9 17 -16 34 -15 37
0 4 -3 10 -8 13 -15 10 -73 147 -73 171 0 4 21 13 48 20 83 21 105 32 188 91
60 42 85 54 93 46 6 -6 11 -16 11 -22 0 -18 40 -36 63 -29 12 4 34 7 49 6 30
-1 50 18 52 50 1 17 13 25 61 40 33 10 88 27 122 38 65 21 113 26 113 11 0 -4
-8 -19 -19 -32 -10 -13 -25 -46 -34 -74 -9 -27 -34 -102 -57 -165 -23 -63 -43
-124 -44 -135 -2 -11 -5 -21 -6 -22 -1 -2 -4 -7 -5 -13 -1 -5 -4 -13 -5 -17
-1 -5 -2 -11 -1 -15 0 -5 -4 -8 -9 -8 -5 0 -9 -3 -9 -7 1 -5 0 -11 -1 -15 -1
-5 -3 -11 -4 -15 -1 -5 -10 -25 -19 -47 -9 -21 -17 -42 -17 -47 0 -5 -5 -9
-12 -9 -6 0 -9 -3 -5 -6 3 -3 -1 -25 -9 -47 -8 -23 -16 -69 -17 -102 -2 -53 0
-60 17 -60 17 0 24 15 42 92 20 81 74 225 93 245 3 4 33 -10 66 -31 48 -30
141 -71 163 -71 17 0 -33 36 -97 71 -42 22 -87 48 -100 58 l-23 18 37 119 c70
230 80 258 102 284 12 14 24 22 28 18 4 -3 9 -30 11 -60 3 -29 9 -64 14 -78
12 -36 22 -128 21 -216 0 -41 4 -87 10 -101 6 -15 12 -66 14 -113 10 -198 16
-255 26 -258 6 -3 5 -9 -2 -19 -10 -11 -10 -14 2 -11 8 2 13 -3 12 -9 -2 -7 2
-13 8 -13 5 0 15 -13 20 -30 6 -16 14 -30 19 -30 9 0 21 55 15 72 -3 7 -7 29
-9 48 -2 19 -11 70 -20 113 -20 99 -20 104 2 111 22 7 50 33 77 70 43 61 88
111 97 108 5 -1 7 2 3 8 -3 5 -1 10 6 10 7 0 10 3 6 6 -13 13 -65 -22 -112
-78 -27 -33 -61 -71 -75 -85 l-24 -26 -13 49 c-7 27 -13 63 -13 79 0 17 -6 50
-14 75 -13 44 -19 123 -20 270 -1 65 1 75 17 78 19 4 26 -3 82 -83 19 -27 50
-68 70 -90 20 -22 44 -55 55 -72 l19 -32 -69 -21 c-94 -28 -92 -45 3 -36 73 8
100 9 127 7 8 0 26 -21 39 -46 14 -27 33 -48 46 -51 19 -5 45 -38 41 -54 0 -3
9 -21 22 -42 12 -20 22 -40 20 -45 -5 -20 14 -49 42 -61 17 -8 37 -20 44 -28
12 -11 15 -10 19 7 3 13 -7 36 -31 67 -42 54 -69 92 -115 159 -17 26 -52 69
-79 97 -42 45 -73 84 -193 242 -16 21 -47 60 -68 87 -21 26 -35 47 -31 47 4 0
-1 6 -12 14 -15 12 -17 18 -8 33 6 10 22 18 35 18 15 0 28 8 34 23 12 26 32
28 96 5 26 -10 50 -15 53 -12 3 2 6 21 8 42 1 20 7 37 13 37 5 0 3 5 -5 10
-10 7 -12 12 -4 18 6 4 11 14 11 22 0 8 2 20 3 25 1 6 2 28 1 50 -1 30 -8 44
-27 58 -24 18 -26 18 -78 -12 -30 -16 -56 -27 -59 -25 -3 3 3 20 14 37 26 44
24 79 -8 116 -31 35 -59 39 -106 14 -41 -22 -51 -22 -114 -1 -65 22 -79 22
-126 -4z"/>
</g>
</svg>
